<svg xmlns="http://www.w3.org/2000/svg" viewBox="0 0 500 320" width="500" height="320">
  <rect width="500" height="320" fill="#e0f2fe"/>
  <text x="250" y="25" text-anchor="middle" font-family="Arial" font-size="16" font-weight="bold" fill="#1e293b">LangGraph State Graph</text>
  <rect x="155" y="50" width="190" height="34" rx="17" fill="#0891b2"/>
  <text x="250" y="71" text-anchor="middle" font-family="Arial" font-size="13" fill="#fff">START</text>
  <line x1="250" y1="84" x2="250" y2="108" stroke="#64748b" stroke-width="2"/>
  <polygon points="246,103 250,113 254,103" fill="#64748b"/>
  <rect x="155" y="115" width="190" height="34" rx="6" fill="#0369a1"/>
  <text x="250" y="136" text-anchor="middle" font-family="Arial" font-size="12" fill="#fff">Node A (Router)</text>
  <line x1="155" y1="132" x2="50" y2="165" stroke="#64748b" stroke-width="1.5"/>
  <line x1="345" y1="132" x2="450" y2="165" stroke="#64748b" stroke-width="1.5"/>
  <polygon points="55,160 45,170 60,173" fill="#64748b"/>
  <polygon points="445,160 455,170 440,173" fill="#64748b"/>
  <rect x="10" y="175" width="80" height="34" rx="4" fill="#0891b2"/>
  <text x="50" y="196" text-anchor="middle" font-family="Arial" font-size="11" fill="#fff">Node B</text>
  <rect x="420" y="175" width="80" height="34" rx="4" fill="#0891b2"/>
  <text x="460" y="196" text-anchor="middle" font-family="Arial" font-size="11" fill="#fff">Node C</text>
  <line x1="50" y1="209" x2="50" y2="235" stroke="#64748b" stroke-width="1.5"/>
  <line x1="460" y1="209" x2="460" y2="235" stroke="#64748b" stroke-width="1.5"/>
  <polygon points="46,230 50,240 54,230" fill="#64748b"/>
  <polygon points="456,230 460,240 464,230" fill="#64748b"/>
  <rect x="10" y="242" width="80" height="34" rx="4" fill="#0891b2"/>
  <text x="50" y="263" text-anchor="middle" font-family="Arial" font-size="11" fill="#fff">Node D</text>
  <rect x="420" y="242" width="80" height="34" rx="4" fill="#0891b2"/>
  <text x="460" y="263" text-anchor="middle" font-family="Arial" font-size="11" fill="#fff">Node D</text>
  <line x1="90" y1="259" x2="190" y2="253" stroke="#64748b" stroke-width="1.5"/>
  <line x1="420" y1="259" x2="310" y2="253" stroke="#64748b" stroke-width="1.5"/>
  <polygon points="185,248 195,258 200,247" fill="#64748b"/>
  <polygon points="315,248 305,258 300,247" fill="#64748b"/>
  <rect x="195" y="240" width="110" height="34" rx="17" fill="#0369a1"/>
  <text x="250" y="261" text-anchor="middle" font-family="Arial" font-size="12" fill="#fff">END</text>
  <text x="250" y="315" text-anchor="middle" font-family="Arial" font-size="11" fill="#64748b">Nodes process state; edges define conditional routing.</text>
</svg>
