<svg xmlns="http://www.w3.org/2000/svg" viewBox="0 0 500 320" width="500" height="320">
  <rect width="500" height="320" fill="#e0f2fe"/>
  <text x="250" y="25" text-anchor="middle" font-family="Arial" font-size="16" font-weight="bold" fill="#1e293b">Multi-LLM Orchestration</text>
  <rect x="155" y="50" width="190" height="34" rx="17" fill="#0891b2"/>
  <text x="250" y="71" text-anchor="middle" font-family="Arial" font-size="13" fill="#fff">Router / Orchestrator</text>
  <line x1="155" y1="67" x2="80" y2="105" stroke="#64748b" stroke-width="1.5"/>
  <line x1="250" y1="84" x2="250" y2="105" stroke="#64748b" stroke-width="1.5"/>
  <line x1="345" y1="67" x2="420" y2="105" stroke="#64748b" stroke-width="1.5"/>
  <rect x="10" y="105" width="140" height="40" rx="6" fill="#0369a1"/>
  <text x="80" y="125" text-anchor="middle" font-family="Arial" font-size="11" fill="#fff">GPT-4o</text>
  <text x="80" y="139" text-anchor="middle" font-family="Arial" font-size="9" fill="#e0f2fe">Text + Vision</text>
  <rect x="180" y="105" width="140" height="40" rx="6" fill="#0369a1"/>
  <text x="250" y="125" text-anchor="middle" font-family="Arial" font-size="11" fill="#fff">Claude 3.5</text>
  <text x="250" y="139" text-anchor="middle" font-family="Arial" font-size="9" fill="#e0f2fe">Code + Analysis</text>
  <rect x="350" y="105" width="140" height="40" rx="6" fill="#0369a1"/>
  <text x="420" y="125" text-anchor="middle" font-family="Arial" font-size="11" fill="#fff">DeepSeek V3</text>
  <text x="420" y="139" text-anchor="middle" font-family="Arial" font-size="9" fill="#e0f2fe">Reasoning</text>
  <line x1="80" y1="145" x2="80" y2="175" stroke="#64748b" stroke-width="1.5"/>
  <line x1="250" y1="145" x2="250" y2="175" stroke="#64748b" stroke-width="1.5"/>
  <line x1="420" y1="145" x2="420" y2="175" stroke="#64748b" stroke-width="1.5"/>
  <polygon points="76,170 80,180 84,170" fill="#64748b"/>
  <polygon points="246,170 250,180 254,170" fill="#64748b"/>
  <polygon points="416,170 420,180 424,170" fill="#64748b"/>
  <rect x="10" y="180" width="140" height="40" rx="6" fill="#0891b2"/>
  <text x="80" y="200" text-anchor="middle" font-family="Arial" font-size="11" fill="#fff">Gemini</text>
  <text x="80" y="214" text-anchor="middle" font-family="Arial" font-size="9" fill="#e0f2fe">Multi-modal</text>
  <rect x="180" y="180" width="140" height="40" rx="6" fill="#0891b2"/>
  <text x="250" y="200" text-anchor="middle" font-family="Arial" font-size="11" fill="#fff">Mistral</text>
  <text x="250" y="214" text-anchor="middle" font-family="Arial" font-size="9" fill="#e0f2fe">Specialized</text>
  <rect x="350" y="180" width="140" height="40" rx="6" fill="#0891b2"/>
  <text x="420" y="200" text-anchor="middle" font-family="Arial" font-size="11" fill="#fff">Ollama</text>
  <text x="420" y="214" text-anchor="middle" font-family="Arial" font-size="9" fill="#e0f2fe">Local</text>
  <line x1="250" y1="220" x2="250" y2="255" stroke="#64748b" stroke-width="2"/>
  <polygon points="246,250 250,260 254,250" fill="#64748b"/>
  <rect x="130" y="262" width="240" height="34" rx="17" fill="#0891b2"/>
  <text x="250" y="283" text-anchor="middle" font-family="Arial" font-size="12" fill="#fff">Best Response Aggregation</text>
  <text x="250" y="315" text-anchor="middle" font-family="Arial" font-size="11" fill="#64748b">Route tasks to the best model for each subtask.</text>
</svg>
