<svg xmlns="http://www.w3.org/2000/svg" viewBox="0 0 600 320" fill="none">
<rect width="600" height="320" rx="12" fill="#f8faff"/>
<text x="300" y="30" text-anchor="middle" font-size="16" font-weight="700" fill="#0d47a1">Azure AI Search Enrichment Pipeline</text>
<rect x="180" y="50" width="240" height="36" rx="8" fill="#1565c0"/><text x="300" y="73" text-anchor="middle" font-size="13" fill="#fff" font-weight="600">Azure AI Search Service</text>
<rect x="20" y="110" width="160" height="50" rx="8" fill="#e3f2fd" stroke="#1565c0"/><text x="100" y="132" text-anchor="middle" font-size="11" fill="#0d47a1" font-weight="600">Data Sources</text><text x="100" y="148" text-anchor="middle" font-size="10" fill="#555">Blob, SQL, Cosmos DB</text>
<rect x="220" y="110" width="160" height="50" rx="8" fill="#e3f2fd" stroke="#1565c0"/><text x="300" y="132" text-anchor="middle" font-size="11" fill="#0d47a1" font-weight="600">Indexers</text><text x="300" y="148" text-anchor="middle" font-size="10" fill="#555">Schedule, Field Mapping</text>
<rect x="420" y="110" width="160" height="50" rx="8" fill="#e3f2fd" stroke="#1565c0"/><text x="500" y="132" text-anchor="middle" font-size="11" fill="#0d47a1" font-weight="600">Skillset</text><text x="500" y="148" text-anchor="middle" font-size="10" fill="#555">Built-in + Custom Skills</text>
<line x1="180" y1="135" x2="220" y2="135" stroke="#1565c0" stroke-width="1.5" marker-end="url(#arrow)"/>
<line x1="380" y1="135" x2="420" y2="135" stroke="#1565c0" stroke-width="1.5" marker-end="url(#arrow)"/>
<rect x="60" y="185" width="160" height="50" rx="8" fill="#e8f5e9" stroke="#2e7d32"/><text x="140" y="207" text-anchor="middle" font-size="11" fill="#1b5e20" font-weight="600">Index</text><text x="140" y="223" text-anchor="middle" font-size="10" fill="#555">Searchable Documents</text>
<rect x="260" y="185" width="160" height="50" rx="8" fill="#e8f5e9" stroke="#2e7d32"/><text x="340" y="207" text-anchor="middle" font-size="11" fill="#1b5e20" font-weight="600">Knowledge Store</text><text x="340" y="223" text-anchor="middle" font-size="10" fill="#555">Azure Storage Projections</text>
<rect x="460" y="185" width="120" height="50" rx="8" fill="#fff3e0" stroke="#e65100"/><text x="520" y="207" text-anchor="middle" font-size="11" fill="#bf360c" font-weight="600">Custom Skill</text><text x="520" y="223" text-anchor="middle" font-size="10" fill="#555">Azure Function</text>
<line x1="500" y1="160" x2="520" y2="185" stroke="#e65100" stroke-width="1.5" stroke-dasharray="4"/>
<line x1="500" y1="160" x2="140" y2="185" stroke="#1565c0" stroke-width="1.5"/>
<line x1="500" y1="160" x2="340" y2="185" stroke="#2e7d32" stroke-width="1.5"/>
<rect x="140" y="255" width="320" height="44" rx="8" fill="#1a1a2e"/><text x="300" y="278" text-anchor="middle" font-size="12" fill="#fff" font-weight="600">Query: $search, $filter, $orderby, $facet, $select</text>
<line x1="140" y1="235" x2="140" y2="255" stroke="#1a1a2e" stroke-width="1.5" stroke-dasharray="4"/>
<line x1="340" y1="235" x2="300" y2="255" stroke="#1a1a2e" stroke-width="1.5" stroke-dasharray="4"/>
<defs><marker id="arrow" viewBox="0 0 10 10" refX="9" refY="5" markerWidth="6" markerHeight="6" orient="auto"><path d="M0,0 L10,5 L0,10 Z" fill="#1565c0"/></marker></defs>
</svg>
