<svg xmlns="http://www.w3.org/2000/svg" viewBox="0 0 500 350" width="500" height="350">
  <rect width="500" height="350" fill="#f0f4f8"/>
  <text x="250" y="25" text-anchor="middle" font-family="Arial" font-size="16" font-weight="bold" fill="#1e293b">Agent Workflow Loop</text>
  <rect x="155" y="50" width="190" height="34" rx="17" fill="#0078d4"/>
  <text x="250" y="71" text-anchor="middle" font-family="Arial" font-size="13" fill="#fff">User Input</text>
  <line x1="250" y1="84" x2="250" y2="103" stroke="#94a3b8" stroke-width="2"/>
  <polygon points="246,98 250,108 254,98" fill="#94a3b8"/>
  <rect x="155" y="110" width="190" height="34" rx="17" fill="#005a9e"/>
  <text x="250" y="131" text-anchor="middle" font-family="Arial" font-size="12" fill="#fff">Orchestrator Parses</text>
  <line x1="250" y1="144" x2="250" y2="163" stroke="#94a3b8" stroke-width="2"/>
  <polygon points="246,158 250,168 254,158" fill="#94a3b8"/>
  <rect x="155" y="170" width="190" height="34" rx="6" fill="#0078d4"/>
  <text x="250" y="191" text-anchor="middle" font-family="Arial" font-size="12" fill="#fff">Call LLM (Inference)</text>
  <line x1="155" y1="187" x2="60" y2="215" stroke="#94a3b8" stroke-width="1.5"/>
  <line x1="250" y1="204" x2="250" y2="230" stroke="#94a3b8" stroke-width="1.5"/>
  <line x1="345" y1="187" x2="440" y2="215" stroke="#94a3b8" stroke-width="1.5"/>
  <rect x="10" y="215" width="100" height="34" rx="4" fill="#0078d4"/>
  <text x="60" y="236" text-anchor="middle" font-family="Arial" font-size="11" fill="#fff">Memory</text>
  <rect x="200" y="237" width="100" height="34" rx="4" fill="#005a9e"/>
  <text x="250" y="258" text-anchor="middle" font-family="Arial" font-size="11" fill="#fff">Tool Execution</text>
  <rect x="390" y="215" width="100" height="34" rx="4" fill="#0078d4"/>
  <text x="440" y="236" text-anchor="middle" font-family="Arial" font-size="11" fill="#fff">Guardrails</text>
  <line x1="60" y1="249" x2="60" y2="290" stroke="#94a3b8" stroke-width="1.5"/>
  <line x1="250" y1="271" x2="250" y2="290" stroke="#94a3b8" stroke-width="1.5"/>
  <line x1="440" y1="249" x2="440" y2="290" stroke="#94a3b8" stroke-width="1.5"/>
  <line x1="60" y1="290" x2="440" y2="290" stroke="#94a3b8" stroke-width="1.5"/>
  <line x1="200" y1="290" x2="155" y2="320" stroke="#94a3b8" stroke-width="1.5"/>
  <polygon points="160,315 150,325 165,328" fill="#94a3b8"/>
  <rect x="155" y="295" width="190" height="34" rx="17" fill="#0078d4"/>
  <text x="250" y="316" text-anchor="middle" font-family="Arial" font-size="12" fill="#fff">Respond to User</text>
  <text x="250" y="348" text-anchor="middle" font-family="Arial" font-size="11" fill="#64748b">Input → Parse → LLM → Execute → Respond (with memory at each step)</text>
</svg>
